<?xml version="1.0" encoding="utf-8"?>
<!-- Generator: Adobe Illustrator 21.0.0, SVG Export Plug-In . SVG Version: 6.00 Build 0)  -->
<svg version="1.1" id="Ebene_1" xmlns="http://www.w3.org/2000/svg" xmlns:xlink="http://www.w3.org/1999/xlink" x="0px" y="0px"
	 viewBox="0 0 162.9 43.7" style="enable-background:new 0 0 162.9 43.7;" xml:space="preserve">
<style type="text/css">
	.st0{fill:#5EC1C9;}
</style>
<g>
	<path class="st0" d="M0,0h6.9v6.9H0V0z M0,9.2h6.9v6.9H0V9.2z M0,18.4h6.9v6.9H0V18.4z M0,27.5h6.9v6.9H0V27.5z M0,36.7h6.9v6.9H0
		V36.7z M9.2,9.2h6.9v6.9H9.2V9.2z M9.2,36.7h6.9v6.9H9.2V36.7z M18.4,9.2h6.9v6.9h-6.9V9.2z M18.4,36.7h6.9v6.9h-6.9V36.7z
		 M27.6,9.2h6.9v6.9h-6.9V9.2z M27.6,18.4h6.9v6.9h-6.9V18.4z M27.6,27.5h6.9v6.9h-6.9V27.5z M27.6,36.7h6.9v6.9h-6.9V36.7z"/>
	<path class="st0" d="M45.9,0h6.9v6.9h-6.9V0z M45.9,18.4h6.9v6.9h-6.9V18.4z M45.9,27.5h6.9v6.9h-6.9V27.5z M45.9,36.7h6.9v6.9
		h-6.9V36.7z M55.1,0H62v6.9h-6.9V0z M55.1,18.4H62v6.9h-6.9V18.4z M55.1,36.7H62v6.9h-6.9V36.7z M64.3,0h6.9v6.9h-6.9V0z
		 M64.3,18.4h6.9v6.9h-6.9V18.4z M64.3,36.7h6.9v6.9h-6.9V36.7z M73.4,0h6.9v6.9h-6.9V0z M73.4,9.2h6.9v6.9h-6.9V9.2z M73.4,18.4
		h6.9v6.9h-6.9V18.4z M73.4,27.5h6.9v6.9h-6.9V27.5z M73.4,36.7h6.9v6.9h-6.9V36.7z"/>
	<path class="st0" d="M91.8,0h6.9v6.9h-6.9V0z M91.8,9.2h6.9v6.9h-6.9V9.2z M91.8,18.4h6.9v6.9h-6.9V18.4z M91.8,27.5h6.9v6.9h-6.9
		V27.5z M91.8,36.7h6.9v6.9h-6.9V36.7z M101,0h6.9v6.9H101V0z M110.1,0h6.9v6.9h-6.9V0z"/>
	<path class="st0" d="M128.5,0h6.9v6.9h-6.9V0z M128.5,9.2h6.9v6.9h-6.9V9.2z M128.5,18.4h6.9v6.9h-6.9V18.4z M128.5,36.7h6.9v6.9
		h-6.9V36.7z M137.7,0h6.9v6.9h-6.9V0z M137.7,18.4h6.9v6.9h-6.9V18.4z M137.7,36.7h6.9v6.9h-6.9V36.7z M146.9,0h6.9v6.9h-6.9V0z
		 M146.9,18.4h6.9v6.9h-6.9V18.4z M146.9,36.7h6.9v6.9h-6.9V36.7z M156,0h6.9v6.9H156V0z M156,18.4h6.9v6.9H156V18.4z M156,27.5h6.9
		v6.9H156V27.5z M156,36.7h6.9v6.9H156V36.7z"/>
</g>
<rect y="9.2" class="st0" width="25.2" height="7.1"/>
<rect x="18.8" y="36.6" class="st0" width="15.6" height="7.1"/>
<rect x="45.8" y="18.4" class="st0" width="34.6" height="7.1"/>
<rect x="45.8" y="0" class="st0" width="25.3" height="7.1"/>
<rect x="101" y="0" class="st0" width="16" height="7.1"/>
<rect x="66" y="36.7" class="st0" width="14.4" height="6.9"/>
<rect x="91.7" y="0" class="st0" width="7.1" height="7.1"/>
<rect x="128.5" y="0" class="st0" width="25.3" height="7.1"/>
<rect x="109" y="36.7" class="st0" width="35.5" height="7"/>
<rect x="128.5" y="36.7" class="st0" width="6.9" height="6.9"/>
</svg>
