<?xml version="1.0" encoding="utf-8"?>
<!-- Generator: Adobe Illustrator 21.0.0, SVG Export Plug-In . SVG Version: 6.00 Build 0)  -->
<svg version="1.1" id="Ebene_1" xmlns="http://www.w3.org/2000/svg" xmlns:xlink="http://www.w3.org/1999/xlink" x="0px" y="0px"
	 viewBox="0 0 768 768" style="enable-background:new 0 0 768 768;" xml:space="preserve">
<path d="M593.4,622.6c4,4,8.7,5.9,14.6,5.9c6.1,0,10.8-1.8,14.7-5.8s5.8-8.6,5.8-14.7c0-6-1.9-10.6-5.9-14.6L413,384l209.6-209.4
	c4-4,5.9-8.7,5.9-14.6c0-6.1-1.8-10.8-5.8-14.7c-3.9-3.9-8.6-5.8-14.7-5.8c-6,0-10.6,1.9-14.6,5.9L384,355L174.6,145.4
	c-4-4-8.7-5.9-14.6-5.9c-6.1,0-10.8,1.8-14.7,5.8c-3.9,3.9-5.8,8.6-5.8,14.7c0,6,1.9,10.6,5.9,14.6L355,384L145.4,593.4
	c-4,4-5.9,8.7-5.9,14.6c0,6.1,1.8,10.8,5.8,14.7c3.9,3.9,8.6,5.8,14.7,5.8c6,0,10.6-1.9,14.6-5.9L384,413L593.4,622.6z"/>
</svg>
