<?xml version="1.0" encoding="utf-8"?>
<!-- Generator: Adobe Illustrator 27.1.1, SVG Export Plug-In . SVG Version: 6.00 Build 0)  -->
<svg version="1.1" id="Layer_1" xmlns="http://www.w3.org/2000/svg" xmlns:xlink="http://www.w3.org/1999/xlink" x="0px" y="0px"
	 viewBox="0 0 31.9 36.8" style="enable-background:new 0 0 31.9 36.8;" xml:space="preserve">
<style type="text/css">
	.st0{fill:#F05409;}
</style>
<g id="Group_12464" transform="translate(-280 -1182)">
	<g id="Notification" transform="translate(280 1182)">
		<path id="Shape" class="st0" d="M15.9,36.8c-1.9,0-3.8-0.8-5.1-2.2c-0.5-0.5-0.5-1.2,0-1.7H2.5c-1.1,0-2.1-0.7-2.4-1.8
			c-0.3-1,0.1-2.2,1.1-2.7c0.8-0.8,1.3-1.8,1.7-2.8c1-3,1.5-6.1,1.4-9.3c0.1-3.1,1.2-6,3.2-8.3c1.1-1.3,2.4-2.3,3.9-3.1
			c0-0.1,0-0.2,0-0.2C11.4,2.1,13.4,0,16,0c2.5,0,4.6,2.1,4.6,4.6c0,0,0,0,0,0c0,0.1,0,0.2,0,0.2c1.5,0.7,2.8,1.8,3.9,3.1
			c2,2.3,3.1,5.3,3.2,8.3c0,9,2.8,11.8,3.1,12.1c0.9,0.6,1.3,1.7,1,2.8c-0.3,1.1-1.3,1.8-2.4,1.8H21c0.4,0.5,0.4,1.2,0,1.7
			C19.7,36,17.8,36.8,15.9,36.8z M12.6,32.9c0.9,0.9,2.1,1.4,3.3,1.4h0.1c1.2,0,2.4-0.5,3.3-1.4L12.6,32.9z M5,27.1
			c-0.5,1.3-1.3,2.4-2.3,3.3h26.7c-1-0.9-1.8-2-2.3-3.3H5z M16,6.2c-2.6,0.1-5,1.2-6.6,3.3c-1.6,1.9-2.5,4.3-2.6,6.8
			c0,2.8-0.3,5.6-1,8.3h20.3c-0.7-2.7-1-5.5-1-8.3C25.2,11.5,21.3,6.2,16,6.2z M16,3.7c0.7,0,1.3,0.1,2,0.2c-0.3-0.8-1.1-1.4-2-1.5
			c-0.9,0.1-1.6,0.6-2,1.5C14.7,3.8,15.4,3.7,16,3.7L16,3.7z"/>
	</g>
</g>
</svg>
