<svg id="Component_165_1" data-name="Component 165 – 1" xmlns="http://www.w3.org/2000/svg" xmlns:xlink="http://www.w3.org/1999/xlink" width="28.974" height="31.704" viewBox="0 0 28.974 31.704">
  <defs>
    <clipPath id="clip-path">
      <path id="Path_11645" data-name="Path 11645" d="M28.008-146.545a9.624,9.624,0,0,0-3.376-2.378,23.486,23.486,0,0,0-7.887-1.97c-.8-.067-1.6-.107-2.383-.107a25.653,25.653,0,0,0-8.41,1.414,13.384,13.384,0,0,0-4.417,2.4A4.235,4.235,0,0,0,0-143.724v.04a11.366,11.366,0,0,1,.02,1.36c-.007.322-.013.663,0,1a2.611,2.611,0,0,0,2.732,2.707h4.3A2.517,2.517,0,0,0,9.69-141.3v-2.372c.134-.04.268-.087.4-.127.208-.067.4-.134.577-.174a17.118,17.118,0,0,1,3.765-.4,22.221,22.221,0,0,1,2.269.121,10.541,10.541,0,0,1,2.618.583c-.02.59-.02,1.166-.013,1.722v.65a2.559,2.559,0,0,0,2.732,2.727h2.1c.242,0,.483,0,.718.007s.477.007.718.007c.268,0,.5-.007.725-.013a2.565,2.565,0,0,0,2.671-2.66v-2.653a3.987,3.987,0,0,0-.967-2.66ZM14.6-124.268a2.491,2.491,0,0,1,2.49,2.486A2.5,2.5,0,0,1,14.6-119.3a2.5,2.5,0,0,1-2.49-2.486A2.491,2.491,0,0,1,14.6-124.268Zm6.618,0a2.491,2.491,0,0,1,2.49,2.486,2.5,2.5,0,0,1-2.49,2.486,2.5,2.5,0,0,1-2.49-2.486A2.491,2.491,0,0,1,21.222-124.268Zm-13.236,0a2.491,2.491,0,0,1,2.49,2.486,2.5,2.5,0,0,1-2.49,2.486,2.5,2.5,0,0,1-2.49-2.486A2.491,2.491,0,0,1,7.985-124.268ZM14.6-122.66a.882.882,0,0,0-.879.878.882.882,0,0,0,.879.878.877.877,0,0,0,.879-.878A.882.882,0,0,0,14.6-122.66Zm6.618,0a.882.882,0,0,0-.879.878.882.882,0,0,0,.879.878.881.881,0,0,0,.879-.878A.881.881,0,0,0,21.222-122.66Zm-13.236,0a.882.882,0,0,0-.879.878.882.882,0,0,0,.879.878.877.877,0,0,0,.879-.878A.882.882,0,0,0,7.985-122.66Zm6.618-7.933a2.491,2.491,0,0,1,2.49,2.486,2.5,2.5,0,0,1-2.49,2.486,2.5,2.5,0,0,1-2.49-2.486A2.491,2.491,0,0,1,14.6-130.592Zm6.618,0a2.491,2.491,0,0,1,2.49,2.486,2.5,2.5,0,0,1-2.49,2.486,2.5,2.5,0,0,1-2.49-2.486A2.491,2.491,0,0,1,21.222-130.592Zm-13.236,0a2.491,2.491,0,0,1,2.49,2.486,2.5,2.5,0,0,1-2.49,2.486,2.5,2.5,0,0,1-2.49-2.486A2.491,2.491,0,0,1,7.985-130.592Zm6.618,1.615a.882.882,0,0,0-.879.878.881.881,0,0,0,.879.878.873.873,0,0,0,.879-.878A.882.882,0,0,0,14.6-128.978Zm6.618,0a.882.882,0,0,0-.879.878.882.882,0,0,0,.879.878.881.881,0,0,0,.879-.878A.881.881,0,0,0,21.222-128.978Zm-13.236,0a.882.882,0,0,0-.879.878.882.882,0,0,0,.879.878.873.873,0,0,0,.879-.878A.882.882,0,0,0,7.985-128.978ZM14.6-136.91a2.491,2.491,0,0,1,2.49,2.486,2.5,2.5,0,0,1-2.49,2.486,2.5,2.5,0,0,1-2.49-2.486A2.491,2.491,0,0,1,14.6-136.91Zm6.618,0a2.491,2.491,0,0,1,2.49,2.486,2.5,2.5,0,0,1-2.49,2.486,2.5,2.5,0,0,1-2.49-2.486A2.491,2.491,0,0,1,21.222-136.91Zm-13.236,0a2.491,2.491,0,0,1,2.49,2.486,2.5,2.5,0,0,1-2.49,2.486,2.5,2.5,0,0,1-2.49-2.486A2.491,2.491,0,0,1,7.985-136.91ZM14.6-135.3a.882.882,0,0,0-.879.878.882.882,0,0,0,.879.878.873.873,0,0,0,.879-.878A.882.882,0,0,0,14.6-135.3Zm6.618,0a.882.882,0,0,0-.879.878.882.882,0,0,0,.879.878.881.881,0,0,0,.879-.878A.881.881,0,0,0,21.222-135.3Zm-13.236,0a.882.882,0,0,0-.879.878.882.882,0,0,0,.879.878.873.873,0,0,0,.879-.878A.882.882,0,0,0,7.985-135.3Zm6.383-14.1c.738,0,1.49.033,2.235.1a22.184,22.184,0,0,1,7.356,1.829,7.646,7.646,0,0,1,2.819,1.956,2.445,2.445,0,0,1,.591,1.628v2.626A.981.981,0,0,1,26.3-140.18h-.027c-.2.007-.423.013-.678.013-.235,0-.463,0-.7-.007s-.49-.007-.738-.007h-2.1c-.779,0-1.121-.348-1.121-1.119v-.663c-.007-.65-.007-1.266.027-1.9v-.047a1.172,1.172,0,0,0-.711-1.132.2.2,0,0,1-.054-.027,11.907,11.907,0,0,0-3.289-.784h-.013a23.673,23.673,0,0,0-2.436-.127,19.076,19.076,0,0,0-4.115.436c-.262.06-.5.141-.738.214-.208.067-.4.134-.577.174l-.081.02h0a1.185,1.185,0,0,0-.846,1.2v2.633a.94.94,0,0,1-1.02,1.072H2.763a1.012,1.012,0,0,1-1.121-1.139v-.007c-.007-.3-.007-.6,0-.925a14.4,14.4,0,0,0-.027-1.514,2.584,2.584,0,0,1,.993-2.171A11.706,11.706,0,0,1,6.5-148.072,23.984,23.984,0,0,1,14.369-149.4Z" transform="translate(0 151)" fill="#fff" clip-rule="evenodd"/>
    </clipPath>
    <clipPath id="clip-path-2">
      <path id="Path_11644" data-name="Path 11644" d="M-3254,149.854h881.825V-585H-3254Z" transform="translate(3254 585)" fill="#fff"/>
    </clipPath>
  </defs>
  <g id="Group_11470" data-name="Group 11470" clip-path="url(#clip-path)">
    <g id="Group_11469" data-name="Group 11469" transform="translate(-683.205 -91.122)" clip-path="url(#clip-path-2)">
      <path id="Path_11643" data-name="Path 11643" d="M-5-156H26.074v33.8H-5Z" transform="translate(687.155 246.072)" fill="#fff"/>
    </g>
  </g>
</svg>
