<?xml version="1.0" encoding="utf-8"?>
<!-- Generator: Adobe Illustrator 27.1.1, SVG Export Plug-In . SVG Version: 6.00 Build 0)  -->
<svg version="1.1" id="Layer_1" xmlns="http://www.w3.org/2000/svg" xmlns:xlink="http://www.w3.org/1999/xlink" x="0px" y="0px"
	 viewBox="0 0 32.1 35.5" style="enable-background:new 0 0 32.1 35.5;" xml:space="preserve">
<style type="text/css">
	.st0{fill:#F05409;}
</style>
<path id="Union_9" class="st0" d="M2.5,35.5C1.1,35.5,0,34.4,0,33V10.1C0,9.3,0.5,8.4,1.2,8L8,1.2C8.5,0.5,9.3,0,10.1,0h19.5
	c1.4,0,2.5,1.1,2.5,2.5c0,0,0,0,0,0V33c0,1.4-1.1,2.5-2.5,2.5L2.5,35.5z M2.5,33h27.1l0-30.4H10.2v0.1l-0.1,0v7.5H2.6l-0.1,0h0
	L2.5,33z M5.2,7.6h2.4V5.2L5.2,7.6z M7.6,27.9c-0.7,0-1.3-0.6-1.3-1.3c0-0.7,0.6-1.3,1.3-1.3H22c0.7,0,1.3,0.6,1.3,1.3
	c0,0.7-0.6,1.3-1.3,1.3H7.6z M7.6,22c-0.7,0-1.3-0.5-1.3-1.2c0-0.7,0.5-1.3,1.2-1.3c0,0,0,0,0.1,0h16.9c0.7,0,1.3,0.5,1.3,1.2
	c0,0.7-0.5,1.3-1.2,1.3c0,0,0,0-0.1,0H7.6z M18.6,16.1c-1.4,0-2.5-1.1-2.5-2.5v0V8.5c0-1.4,1.1-2.5,2.5-2.5c0,0,0,0,0,0h5.1
	c1.4,0,2.5,1.1,2.5,2.5c0,0,0,0,0,0v5.1c0,1.4-1.1,2.5-2.5,2.5c0,0,0,0,0,0H18.6z M18.6,13.5h5.1V8.5h-5.1V13.5z"/>
</svg>
