<?xml version="1.0" encoding="utf-8"?>
<!-- Generator: Adobe Illustrator 27.1.1, SVG Export Plug-In . SVG Version: 6.00 Build 0)  -->
<svg version="1.1" id="Layer_1" xmlns="http://www.w3.org/2000/svg" xmlns:xlink="http://www.w3.org/1999/xlink" x="0px" y="0px"
	 viewBox="0 0 97.7 88.8" style="enable-background:new 0 0 97.7 88.8;" xml:space="preserve">
<style type="text/css">
	.st0{fill:#F05409;}
</style>
<path id="Union_5" class="st0" d="M19.5,88.2c-2.4-1.1-3.9-3.5-3.9-6.1V75C6.4,72.9,0,64.8,0,55.5V20C0,8.9,8.9,0,20,0h57.7
	c11,0,20,8.9,20,20v35.5c0,11-8.9,20-20,20c0,0,0,0,0,0h-38L26.6,87.1C24.7,88.9,21.9,89.3,19.5,88.2L19.5,88.2z M6.7,20v35.5
	c0,7.4,6,13.3,13.3,13.3c0,0,0,0,0,0h2.2v13.3l15-13.3h40.5c7.4,0,13.3-6,13.3-13.3c0,0,0,0,0,0V20c0-7.4-6-13.3-13.3-13.3
	c0,0,0,0,0,0H20C12.6,6.7,6.7,12.6,6.7,20L6.7,20L6.7,20z M67.7,37.7c0-1.8,1.5-3.3,3.3-3.3s3.3,1.5,3.3,3.3c0,1.8-1.5,3.3-3.3,3.3
	C69.2,41.1,67.7,39.6,67.7,37.7L67.7,37.7z M23.6,37.7c0-1.8,1.5-3.3,3.3-3.3c1.8,0,3.3,1.5,3.3,3.3s-1.5,3.3-3.3,3.3c0,0,0,0,0,0
	C25.1,41.1,23.6,39.6,23.6,37.7C23.6,37.8,23.6,37.8,23.6,37.7z M45.5,37.7c0-1.8,1.5-3.3,3.3-3.3s3.3,1.5,3.3,3.3
	c0,1.8-1.5,3.3-3.3,3.3c0,0,0,0,0,0C47,41.1,45.5,39.6,45.5,37.7C45.5,37.8,45.5,37.8,45.5,37.7z"/>
</svg>
