<svg xmlns="http://www.w3.org/2000/svg" xmlns:xlink="http://www.w3.org/1999/xlink" width="81.731" height="109.528" viewBox="0 0 81.731 109.528">
  <defs>
    <clipPath id="clip-path">
      <path id="Pfad_18" data-name="Pfad 18" d="M42.466,79.333,75.938,45.292c-2.327-4.653-4.843-9.163-4.131-14.765A29.151,29.151,0,0,1,77.03,18.182L64.591,6.17A18.085,18.085,0,0,1,59.7,8.591c-5.175,1.851-10.778,1.8-15.478-.9L42.371,6.6,40.614,7.69a18.525,18.525,0,0,1-15.478.9,19.577,19.577,0,0,1-4.89-2.421L7.807,18.229A29.151,29.151,0,0,1,13.03,30.574c.712,5.555-1.852,10.065-4.131,14.765-3.371,6.552-4.036,15.288-.142,21.792,1.757,3.7,5.887,6.5,9.922,7.739,7.787,2.564,17.519.665,23.5,7.312a.189.189,0,0,0,.19.095.361.361,0,0,0,.19-.095c6.029-6.647,15.763-4.748,23.5-7.312,4.036-1.282,8.166-4.083,9.923-7.739,3.988-6.6,3.323-15.335-.047-21.839" transform="translate(-6.096 -6.17)" fill="#020506" clip-rule="evenodd"/>
    </clipPath>
    <clipPath id="clip-path-2">
      <rect id="Rechteck_3" data-name="Rechteck 3" width="80.376" height="84.435" fill="none"/>
    </clipPath>
  </defs>
  <g id="Logo" transform="translate(-958.436)">
    <rect id="Rechteck_153" data-name="Rechteck 153" width="57.027" height="109.528" transform="translate(972.524)" fill="#ff6b24"/>
    <g id="Gruppe_10565" data-name="Gruppe 10565" transform="translate(958.436 13.905)">
      <g id="Gruppe_9" data-name="Gruppe 9" transform="translate(0)">
        <path id="Pfad_20" data-name="Pfad 20" d="M79.039,16.084,63.134.7c-5.318,3.893-12.724,5.46-18.9,2.374C43,2.458,41.627,1.841,40.392,1.128c-1.187.712-2.564,1.329-3.846,1.947C30.422,6.161,23.015,4.594,17.7.7L1.745,16.084s5.365,7.691,5.84,12.534c.76,7.5-4.178,12.2-5.935,18.9C-.533,55.68.938,65.271,7.253,71.158c6.172,6.03,15.382,5.745,23.312,7.264A17.185,17.185,0,0,1,39.49,83.6a1.04,1.04,0,0,0,.19.238.985.985,0,0,0,1.425.047,1.617,1.617,0,0,0,.285-.285,17,17,0,0,1,8.926-5.175c7.881-1.567,17.139-1.282,23.312-7.264,6.267-5.887,7.691-15.478,5.6-23.644C77.188,40.44,72.772,36.452,73.2,28.665c.285-4.89,5.84-12.581,5.84-12.581" transform="translate(1.128 -0.226)" fill="#fff" fill-rule="evenodd"/>
        <g id="Gruppe_8" data-name="Gruppe 8" transform="translate(0)">
          <g id="Gruppe_4" data-name="Gruppe 4">
            <g id="Gruppe_3" data-name="Gruppe 3" clip-path="url(#clip-path-2)">
              <path id="Pfad_5" data-name="Pfad 5" d="M29.331,88.294a.252.252,0,0,0-.285-.285h-.855v2.232h.949c.143,0,.19-.047.19-.19Zm-1.187-4.178v2.469h.9a.225.225,0,0,0,.238-.238V84.305a.174.174,0,0,0-.19-.19ZM31.088,86.2c0,.475-.142.855-.665.949a.8.8,0,0,1,.76.855v2.469c0,1.045-.38,1.472-1.471,1.472H26.292v-9.5H30a1.048,1.048,0,0,1,1.14,1.14V86.2Z" transform="translate(-7.134 -26.62)" fill="#020506"/>
            </g>
          </g>
          <rect id="Rechteck_5" data-name="Rechteck 5" width="1.899" height="9.496" transform="translate(24.855 55.834)" fill="#020506"/>
          <path id="Pfad_6" data-name="Pfad 6" d="M40.864,86.537l.949-4.083h1.994l-1.14,4.368,1.14,5.127H41.719l-.76-3.893h-.38V91.95H38.633v-9.5h1.946v4.083Z" transform="translate(-11.118 -26.62)" fill="#020506"/>
          <path id="Pfad_7" data-name="Pfad 7" d="M47.046,82.454h3.7l.332,1.757H48.993v2.232h1.566v1.614H48.993v2.089h1.994L50.655,91.9H47.046Z" transform="translate(-13.835 -26.62)" fill="#020506"/>
          <path id="Pfad_8" data-name="Pfad 8" d="M57.532,82.454l.475,1.757H56.725V91.95H54.778V84.211H53.5l.475-1.757Z" transform="translate(-15.917 -26.62)" fill="#020506"/>
          <g id="Gruppe_6" data-name="Gruppe 6" transform="translate(1.354)">
            <g id="Gruppe_5" data-name="Gruppe 5" clip-path="url(#clip-path-2)">
              <path id="Pfad_9" data-name="Pfad 9" d="M62.947,84.116c-.142,0-.19.047-.19.19V90.1c0,.142.047.19.19.19h.712c.142,0,.19-.047.19-.19V84.306a.174.174,0,0,0-.19-.19ZM65.8,90.573c0,.712-.285,1.329-1.377,1.329H62.235a1.212,1.212,0,0,1-1.377-1.329V83.688a1.119,1.119,0,0,1,1.282-1.234h2.374A1.119,1.119,0,0,1,65.8,83.688Z" transform="translate(-19.648 -26.62)" fill="#020506"/>
              <path id="Pfad_10" data-name="Pfad 10" d="M70.814,91.95c-1.092,0-1.472-.427-1.472-1.472V82.454h1.947v7.6c0,.143.047.19.19.19h.664c.143,0,.19-.047.19-.19v-7.6H74.28v8.024c0,1.045-.38,1.472-1.471,1.472Z" transform="translate(-22.387 -26.62)" fill="#020506"/>
              <path id="Pfad_11" data-name="Pfad 11" d="M79.608,84.117v3.275h.949c.142,0,.19-.047.19-.19v-2.9a.174.174,0,0,0-.19-.19Zm2.991,3.94a.821.821,0,0,1-.855.855l1,3.038H80.8l-.9-3.038h-.237V91.95h-1.9V82.455h3.609a1.118,1.118,0,0,1,1.282,1.234v4.368Z" transform="translate(-25.104 -26.621)" fill="#020506"/>
              <path id="Pfad_12" data-name="Pfad 12" d="M86.575,91.95l-.332-1.757h2.042c.19,0,.238-.047.238-.19V88.294c0-.284-.1-.284-.332-.284H87.144c-.569,0-1.044-.143-1.044-1.092V83.688a1.118,1.118,0,0,1,1.282-1.234h2.611l.332,1.757H88.189c-.142,0-.238.048-.238.19V86.11c0,.19.1.238.285.238h1.187c.617,0,.949.237.949.949V90.43c0,1.045-.38,1.425-1.471,1.425H86.575Z" transform="translate(-27.797 -26.62)" fill="#020506"/>
            </g>
          </g>
        </g>
        <path id="Pfad_13" data-name="Pfad 13" d="M75.843,63.856c-1.852,4.842-6.314,8.261-11.775,9.495l-4.225.712c-6.172,1.282-12.534.665-17.376,5.27h-.1c-4.842-4.653-11.2-3.988-17.376-5.27l-4.226-.712c-5.507-1.282-9.922-4.653-11.774-9.495-.9-2.327-2.279-6.6-.237-14.006a40.961,40.961,0,0,1,2.231-5.507c3.276-7.122,3.181-8.214,3.56-9.97a12.966,12.966,0,0,0,0-4.938c-.855-3.8-1.424-5.7-4.985-10.967L20.626,7.974c12.3,7.217,21.792.427,21.84.427.047-.047,9.542,6.79,21.839-.427L75.368,18.467c-3.561,5.27-4.178,7.169-4.985,10.967a11.262,11.262,0,0,0,0,4.938c.38,1.757.284,2.8,3.56,9.97a36.265,36.265,0,0,1,2.232,5.507c1.946,7.407.569,11.679-.332,14.006m.095-18.564c-2.327-4.653-4.843-9.163-4.131-14.765A29.151,29.151,0,0,1,77.03,18.182L64.591,6.17A18.085,18.085,0,0,1,59.7,8.591c-5.175,1.851-10.778,1.8-15.478-.9L42.371,6.6,40.614,7.69a18.525,18.525,0,0,1-15.478.9,19.577,19.577,0,0,1-4.89-2.421L7.807,18.229A29.151,29.151,0,0,1,13.03,30.574c.712,5.555-1.852,10.065-4.131,14.765-3.371,6.552-4.036,15.288-.142,21.792,1.757,3.7,5.887,6.5,9.922,7.739,7.787,2.564,17.519.665,23.5,7.312a.189.189,0,0,0,.19.095.361.361,0,0,0,.19-.095c6.029-6.647,15.763-4.748,23.5-7.312,4.036-1.282,8.166-4.083,9.923-7.739,3.988-6.6,3.323-15.335-.047-21.839" transform="translate(-0.614 -1.992)" fill="#020506" fill-rule="evenodd"/>
        <path id="Pfad_16" data-name="Pfad 16" d="M33.319,45.729V62.774H26.292V26.643h7.644l3.941,15.288,3.94-15.288h7.692V62.821H42.435V45.729L37.83,60.21Z" transform="translate(-7.134 -8.602)" fill="#020506"/>
        <path id="Pfad_19" data-name="Pfad 19" d="M72.189,32.958V45.445h3.56c.57,0,.712-.19.712-.76V33.717c0-.427-.19-.759-.712-.759ZM83.536,48.1a3.1,3.1,0,0,1-3.229,3.181l3.8,11.537H76.6L73.091,51.284h-.949V62.821H64.925V26.643H78.646c3.371,0,4.89,1.852,4.89,4.7Z" transform="translate(-19.607 -8.602)" fill="#020506"/>
      </g>
    </g>
  </g>
</svg>
