<svg id="icon_person" xmlns="http://www.w3.org/2000/svg" width="9.528" height="24.077" viewBox="0 0 9.528 24.077">
  <g id="Group_11332" data-name="Group 11332">
    <path id="Path_11555" data-name="Path 11555" d="M48.815,4.009a2.055,2.055,0,0,0,2.115-2A2.118,2.118,0,0,0,46.7,2a2.062,2.062,0,0,0,2.115,2" transform="translate(-44.051)"/>
    <path id="Path_11556" data-name="Path 11556" d="M6.885,83H2.643A2.638,2.638,0,0,0,0,85.6v6.1a.879.879,0,1,0,1.758,0V86.063H2.1v15.348a1.219,1.219,0,0,0,2.439,0V92.566h.454v8.851a1.22,1.22,0,0,0,2.439-.005V86.063h.284v5.643a.908.908,0,0,0,1.815,0V85.6A2.646,2.646,0,0,0,6.885,83" transform="translate(0 -78.54)"/>
  </g>
</svg>
