<?xml version="1.0" encoding="utf-8"?>
<!-- Generator: Adobe Illustrator 27.1.1, SVG Export Plug-In . SVG Version: 6.00 Build 0)  -->
<svg version="1.1" id="Layer_1" xmlns="http://www.w3.org/2000/svg" xmlns:xlink="http://www.w3.org/1999/xlink" x="0px" y="0px"
	 viewBox="0 0 37.2 28.8" style="enable-background:new 0 0 37.2 28.8;" xml:space="preserve">
<style type="text/css">
	.st0{fill-rule:evenodd;clip-rule:evenodd;fill:#F05409;}
</style>
<path id="Path_11671" class="st0" d="M34.7,0H2.5C1.1,0,0,1.1,0,2.5v23.7c0,1.4,1.1,2.5,2.5,2.5h32.1c1.4,0,2.5-1.1,2.5-2.5V2.5
	C37.2,1.1,36.1,0,34.7,0z M34.7,24.4L28,17.7c-0.5-0.5-1.3-0.5-1.8,0c-0.5,0.5-0.5,1.3,0,1.8l6.7,6.7H4.3l6.7-6.7
	c0.5-0.5,0.5-1.3,0-1.8c-0.5-0.5-1.3-0.5-1.8,0l-6.7,6.7V8.1l15.2,11.5c0.5,0.3,1.1,0.3,1.5,0L34.7,8.1L34.7,24.4z M34.7,2.5V5
	L18.5,17L2.5,5V2.5L34.7,2.5z"/>
</svg>
