<?xml version="1.0" encoding="utf-8"?>
<!-- Generator: Adobe Illustrator 27.1.1, SVG Export Plug-In . SVG Version: 6.00 Build 0)  -->
<svg version="1.1" id="Layer_1" xmlns="http://www.w3.org/2000/svg" xmlns:xlink="http://www.w3.org/1999/xlink" x="0px" y="0px"
	 viewBox="0 0 37.2 40.7" style="enable-background:new 0 0 37.2 40.7;" xml:space="preserve">
<style type="text/css">
	.st0{fill-rule:evenodd;clip-rule:evenodd;fill:#F05409;}
</style>
<path id="Path_11672" class="st0" d="M36,5.7c-1.2-1.3-2.7-2.4-4.3-3.1C28.4,1.2,25,0.4,21.5,0.1c-1-0.1-2.1-0.1-3.1-0.1
	c-3.7,0-7.3,0.6-10.8,1.8C5.6,2.5,3.7,3.5,2,4.9C0.7,6-0.1,7.6,0,9.3v0.1c0,0.6,0.1,1.2,0,1.7c0,0.4,0,0.9,0,1.3
	c-0.1,1.9,1.4,3.4,3.2,3.5c0.1,0,0.2,0,0.3,0h5.5c1.8,0.1,3.3-1.3,3.4-3.1c0-0.1,0-0.2,0-0.4v-3c0.2-0.1,0.3-0.1,0.5-0.2
	c0.3-0.1,0.5-0.2,0.7-0.2c1.6-0.4,3.2-0.5,4.8-0.5c1,0,1.9,0.1,2.9,0.2c1.1,0.1,2.3,0.4,3.4,0.7c0,0.8,0,1.5,0,2.2v0.8
	c-0.1,1.8,1.2,3.4,3.1,3.5c0.1,0,0.3,0,0.5,0H31c0.3,0,0.6,0,0.9,0s0.6,0,0.9,0c0.3,0,0.6,0,0.9,0c1.8,0.1,3.4-1.3,3.4-3.2
	c0-0.1,0-0.2,0-0.3V9.1C37.2,7.9,36.8,6.7,36,5.7L36,5.7z M18.8,34.3c1.8,0,3.2,1.4,3.2,3.2c0,1.8-1.4,3.2-3.2,3.2
	c-1.8,0-3.2-1.4-3.2-3.2C15.6,35.8,17,34.3,18.8,34.3z M27.3,34.3c1.8,0,3.2,1.4,3.2,3.2c0,1.8-1.4,3.2-3.2,3.2
	c-1.8,0-3.2-1.4-3.2-3.2C24.1,35.8,25.5,34.3,27.3,34.3L27.3,34.3z M10.3,34.3c1.8,0,3.2,1.4,3.2,3.2c0,1.8-1.4,3.2-3.2,3.2
	c-1.8,0-3.2-1.4-3.2-3.2C7.1,35.8,8.5,34.3,10.3,34.3z M18.8,36.4c-0.6,0-1.1,0.5-1.1,1.1c0,0.6,0.5,1.1,1.1,1.1
	c0.6,0,1.1-0.5,1.1-1.1c0,0,0,0,0,0C19.9,36.9,19.4,36.4,18.8,36.4L18.8,36.4z M27.3,36.4c-0.6,0-1.1,0.5-1.1,1.1
	c0,0.6,0.5,1.1,1.1,1.1c0.6,0,1.1-0.5,1.1-1.1C28.4,36.9,27.9,36.4,27.3,36.4L27.3,36.4z M10.3,36.4c-0.6,0-1.1,0.5-1.1,1.1
	c0,0.6,0.5,1.1,1.1,1.1c0.6,0,1.1-0.5,1.1-1.1c0,0,0,0,0,0C11.4,36.9,10.9,36.4,10.3,36.4L10.3,36.4z M18.8,26.2
	c1.8,0,3.2,1.4,3.2,3.2c0,1.8-1.4,3.2-3.2,3.2c-1.8,0-3.2-1.4-3.2-3.2C15.6,27.6,17,26.2,18.8,26.2z M27.3,26.2
	c1.8,0,3.2,1.4,3.2,3.2c0,1.8-1.4,3.2-3.2,3.2c-1.8,0-3.2-1.4-3.2-3.2C24.1,27.6,25.5,26.2,27.3,26.2L27.3,26.2z M10.3,26.2
	c1.8,0,3.2,1.4,3.2,3.2c0,1.8-1.4,3.2-3.2,3.2c-1.8,0-3.2-1.4-3.2-3.2C7.1,27.6,8.5,26.2,10.3,26.2z M18.8,28.3
	c-0.6,0-1.1,0.5-1.1,1.1c0,0.6,0.5,1.1,1.1,1.1c0.6,0,1.1-0.5,1.1-1.1c0,0,0,0,0,0C19.9,28.8,19.4,28.3,18.8,28.3z M27.3,28.3
	c-0.6,0-1.1,0.5-1.1,1.1c0,0.6,0.5,1.1,1.1,1.1c0.6,0,1.1-0.5,1.1-1.1C28.4,28.8,27.9,28.3,27.3,28.3L27.3,28.3z M10.3,28.3
	c-0.6,0-1.1,0.5-1.1,1.1c0,0.6,0.5,1.1,1.1,1.1c0.6,0,1.1-0.5,1.1-1.1c0,0,0,0,0,0C11.4,28.8,10.9,28.3,10.3,28.3z M18.8,18.1
	c1.8,0,3.2,1.4,3.2,3.2c0,1.8-1.4,3.2-3.2,3.2c-1.8,0-3.2-1.4-3.2-3.2C15.6,19.5,17,18.1,18.8,18.1L18.8,18.1z M27.3,18.1
	c1.8,0,3.2,1.4,3.2,3.2c0,1.8-1.4,3.2-3.2,3.2c-1.8,0-3.2-1.4-3.2-3.2C24.1,19.5,25.5,18.1,27.3,18.1L27.3,18.1z M10.3,18.1
	c1.8,0,3.2,1.4,3.2,3.2c0,1.8-1.4,3.2-3.2,3.2c-1.8,0-3.2-1.4-3.2-3.2C7.1,19.5,8.5,18.1,10.3,18.1L10.3,18.1z M18.8,20.2
	c-0.6,0-1.1,0.5-1.1,1.1c0,0.6,0.5,1.1,1.1,1.1c0.6,0,1.1-0.5,1.1-1.1c0,0,0,0,0,0C19.9,20.7,19.4,20.2,18.8,20.2z M27.3,20.2
	c-0.6,0-1.1,0.5-1.1,1.1c0,0.6,0.5,1.1,1.1,1.1c0.6,0,1.1-0.5,1.1-1.1C28.4,20.7,27.9,20.2,27.3,20.2L27.3,20.2z M10.3,20.2
	c-0.6,0-1.1,0.5-1.1,1.1c0,0.6,0.5,1.1,1.1,1.1c0.6,0,1.1-0.5,1.1-1.1c0,0,0,0,0,0C11.4,20.7,10.9,20.2,10.3,20.2z M18.5,2.1
	c0.9,0,1.9,0,2.9,0.1c3.3,0.2,6.5,1,9.4,2.3c1.4,0.6,2.6,1.4,3.6,2.5c0.5,0.6,0.8,1.3,0.8,2.1v3.4c0.1,0.7-0.4,1.3-1.1,1.4
	c-0.1,0-0.2,0-0.3,0h0c-0.3,0-0.5,0-0.9,0c-0.3,0-0.6,0-0.9,0s-0.6,0-0.9,0h-2.7c-1,0-1.4-0.4-1.4-1.4v-0.9c0-0.8,0-1.6,0-2.4V9.1
	c0-0.6-0.3-1.2-0.9-1.5c0,0,0,0-0.1,0c-1.4-0.5-2.8-0.9-4.2-1h0c-1-0.1-2.1-0.2-3.1-0.2c-1.8,0-3.5,0.2-5.3,0.6
	c-0.3,0.1-0.6,0.2-0.9,0.3c-0.3,0.1-0.5,0.2-0.7,0.2l-0.1,0l0,0c-0.7,0.2-1.1,0.8-1.1,1.5v3.4c0.1,0.7-0.4,1.3-1,1.4
	c-0.1,0-0.2,0-0.3,0H3.5c-0.7,0.1-1.4-0.4-1.4-1.1c0-0.1,0-0.2,0-0.3v0c0-0.4,0-0.8,0-1.2c0-0.6,0-1.3,0-1.9C2,8.1,2.5,7.1,3.4,6.4
	c1.5-1.2,3.2-2.1,5-2.7C11.6,2.6,15,2.1,18.5,2.1L18.5,2.1z"/>
</svg>
