<svg xmlns="http://www.w3.org/2000/svg" width="28.438" height="20" viewBox="0 0 28.438 20">
  <path id="icon_road" d="M17.359-8.437V-8.5l-.375-5a.528.528,0,0,0-.172-.352A.507.507,0,0,0,16.453-14H13.547a.507.507,0,0,0-.359.148.528.528,0,0,0-.172.352l-.375,5v.063a.358.358,0,0,0,.125.313A.478.478,0,0,0,13.094-8h3.813a.478.478,0,0,0,.328-.125A.358.358,0,0,0,17.359-8.437Zm11.859,7.3Q29.219,0,28.5,0h-11a.455.455,0,0,0,.344-.148A.441.441,0,0,0,17.969-.5l-.312-4a.528.528,0,0,0-.172-.352A.507.507,0,0,0,17.125-5h-4.25a.507.507,0,0,0-.359.148.528.528,0,0,0-.172.352l-.312,4a.441.441,0,0,0,.125.352A.455.455,0,0,0,12.5,0H1.5Q.781,0,.781-1.141a4.705,4.705,0,0,1,.406-1.812L7.7-19.266a1.28,1.28,0,0,1,.406-.516A.952.952,0,0,1,8.7-20H14a.507.507,0,0,0-.359.148.528.528,0,0,0-.172.352l-.234,3a.439.439,0,0,0,.125.359A.468.468,0,0,0,13.7-16H16.3a.468.468,0,0,0,.344-.141.439.439,0,0,0,.125-.359l-.234-3a.528.528,0,0,0-.172-.352A.507.507,0,0,0,16-20h5.3a.952.952,0,0,1,.594.219,1.28,1.28,0,0,1,.406.516L28.812-2.953A4.705,4.705,0,0,1,29.219-1.141Z" transform="translate(-0.781 20)" fill="#fff"/>
</svg>
