<svg xmlns="http://www.w3.org/2000/svg" width="24" height="24" viewBox="0 0 24 24">
  <path id="icon_clock" d="M14-15.5v7a.487.487,0,0,1-.141.359A.487.487,0,0,1,13.5-8h-5a.487.487,0,0,1-.359-.141A.487.487,0,0,1,8-8.5v-1a.487.487,0,0,1,.141-.359A.487.487,0,0,1,8.5-10H12v-5.5a.487.487,0,0,1,.141-.359A.487.487,0,0,1,12.5-16h1a.487.487,0,0,1,.359.141A.487.487,0,0,1,14-15.5Zm5.359,9.766A8.308,8.308,0,0,0,20.5-10a8.308,8.308,0,0,0-1.141-4.266,8.473,8.473,0,0,0-3.094-3.094A8.308,8.308,0,0,0,12-18.5a8.308,8.308,0,0,0-4.266,1.141,8.473,8.473,0,0,0-3.094,3.094A8.308,8.308,0,0,0,3.5-10,8.308,8.308,0,0,0,4.641-5.734,8.473,8.473,0,0,0,7.734-2.641,8.308,8.308,0,0,0,12-1.5a8.308,8.308,0,0,0,4.266-1.141A8.473,8.473,0,0,0,19.359-5.734Zm3.031-10.281A11.7,11.7,0,0,1,24-10a11.739,11.739,0,0,1-1.609,6.023A11.946,11.946,0,0,1,18.023.391,11.739,11.739,0,0,1,12,2,11.739,11.739,0,0,1,5.977.391,11.946,11.946,0,0,1,1.609-3.977,11.739,11.739,0,0,1,0-10a11.739,11.739,0,0,1,1.609-6.023,11.946,11.946,0,0,1,4.367-4.367A11.739,11.739,0,0,1,12-22a11.739,11.739,0,0,1,6.023,1.609A11.928,11.928,0,0,1,22.391-16.016Z" transform="translate(0 22)" fill="#fff"/>
</svg>
