<svg xmlns="http://www.w3.org/2000/svg" width="30" height="29" viewBox="0 0 30 29">
  <g id="star_icon" fill="none">
    <path d="M15,0l3.75,10.785L30,11.077l-8.932,6.958L24.271,29,15,22.515,5.729,29l3.2-10.965L0,11.077l11.25-.292Z" stroke="none"/>
    <path d="M 15 6.089624404907227 L 12.68475914001465 12.74804878234863 L 5.635158538818359 12.93124580383301 L 11.23299980163574 17.29153823852539 L 9.244047164916992 24.10088729858398 L 15 20.07468032836914 L 20.75595283508301 24.10088729858398 L 18.76700019836426 17.29154968261719 L 24.36482810974121 12.93124961853027 L 17.31525039672852 12.74804878234863 L 15 6.089624404907227 M 15 -1.9073486328125e-06 L 18.75 10.78465843200684 L 30 11.0770092010498 L 21.06763076782227 18.03466033935547 L 24.27050971984863 29 L 15 22.51539993286133 L 5.729490280151367 29 L 8.932369232177734 18.03466033935547 L 0 11.07701873779297 L 11.25 10.78465843200684 L 15 -1.9073486328125e-06 Z" stroke="none" fill="#000"/>
  </g>
</svg>
